<svg xmlns="http://www.w3.org/2000/svg" width="1200" height="800" viewBox="0 0 1200 800" role="img" aria-labelledby="title desc">
  <title id="title">Whole-food breakfast parfait illustration</title>
  <desc id="desc">Layered breakfast parfait glass surrounded by fruit and grains in an emerald palette.</desc>
  <defs>
    <linearGradient id="bg" x1="0" y1="0" x2="1" y2="1">
      <stop offset="0%" stop-color="#f0fdf4" />
      <stop offset="100%" stop-color="#dcfce7" />
    </linearGradient>
  </defs>
  <rect width="1200" height="800" fill="url(#bg)" rx="48" />
  <g opacity="0.2" fill="#22c55e">
    <circle cx="220" cy="160" r="120" />
    <circle cx="980" cy="620" r="180" />
    <circle cx="1060" cy="180" r="140" />
  </g>
  <g transform="translate(420 160)">
    <rect x="100" y="60" width="260" height="420" rx="130" fill="#f8fafc" stroke="#d1fae5" stroke-width="16" />
    <rect x="140" y="100" width="180" height="280" rx="90" fill="#ecfeff" />
    <g fill="#34d399">
      <ellipse cx="230" cy="170" rx="70" ry="28" />
      <ellipse cx="230" cy="240" rx="80" ry="30" />
      <ellipse cx="230" cy="300" rx="74" ry="28" />
    </g>
    <g fill="#fbbf24" opacity="0.9">
      <circle cx="190" cy="190" r="12" />
      <circle cx="260" cy="210" r="10" />
      <circle cx="210" cy="270" r="9" />
      <circle cx="250" cy="310" r="11" />
    </g>
    <path d="M160 360c32 24 108 24 140 0" fill="none" stroke="#a7f3d0" stroke-width="14" stroke-linecap="round" />
  </g>
  <g transform="translate(280 520)" fill="#fb923c">
    <ellipse cx="80" cy="60" rx="80" ry="36" />
    <circle cx="50" cy="40" r="12" fill="#fbbf24" />
    <circle cx="110" cy="70" r="14" fill="#f97316" />
  </g>
  <g transform="translate(760 520)" fill="#bbf7d0">
    <ellipse cx="80" cy="60" rx="90" ry="34" />
    <circle cx="50" cy="38" r="12" fill="#34d399" />
    <circle cx="110" cy="68" r="10" fill="#10b981" />
  </g>
</svg>
