<svg xmlns="http://www.w3.org/2000/svg" width="720" height="540" viewBox="0 0 720 540" role="img" aria-labelledby="title desc">
  <title id="title">Colorful bowls filled with nourishing foods</title>
  <desc id="desc">Abstract illustration with layered bowls, leaves, and grains evoking a wholesome breakfast spread.</desc>
  <defs>
    <linearGradient id="bg" x1="0" y1="0" x2="1" y2="1">
      <stop offset="0%" stop-color="#ecfdf5" />
      <stop offset="50%" stop-color="#f8fafc" />
      <stop offset="100%" stop-color="#d1fae5" />
    </linearGradient>
    <radialGradient id="bowl" cx="0.5" cy="0.5" r="0.7">
      <stop offset="0%" stop-color="#34d399" stop-opacity="0.9" />
      <stop offset="100%" stop-color="#047857" stop-opacity="0.7" />
    </radialGradient>
    <linearGradient id="grain" x1="0" y1="0" x2="1" y2="1">
      <stop offset="0%" stop-color="#f97316" />
      <stop offset="100%" stop-color="#fbbf24" />
    </linearGradient>
  </defs>
  <rect width="720" height="540" fill="url(#bg)" rx="36" />
  <g opacity="0.18">
    <circle cx="120" cy="120" r="80" fill="#10b981" />
    <circle cx="680" cy="80" r="120" fill="#0f766e" />
    <circle cx="560" cy="460" r="140" fill="#059669" />
  </g>
  <g transform="translate(90 180)">
    <ellipse cx="140" cy="160" rx="140" ry="72" fill="white" opacity="0.9" />
    <ellipse cx="140" cy="150" rx="120" ry="56" fill="url(#bowl)" opacity="0.85" />
    <path d="M40 150c60 40 180 40 240 0" fill="none" stroke="white" stroke-width="8" stroke-linecap="round" />
    <circle cx="120" cy="140" r="16" fill="#fde68a" />
    <circle cx="170" cy="132" r="12" fill="#f97316" opacity="0.9" />
    <path d="M100 120c18-28 64-40 96-16" fill="none" stroke="#fcd34d" stroke-width="6" stroke-linecap="round" />
  </g>
  <g transform="translate(360 220)">
    <ellipse cx="150" cy="120" rx="130" ry="60" fill="white" opacity="0.85" />
    <ellipse cx="150" cy="110" rx="110" ry="48" fill="#6ee7b7" opacity="0.9" />
    <path d="M70 110c40 26 120 26 160 0" fill="none" stroke="white" stroke-width="7" stroke-linecap="round" />
    <circle cx="120" cy="96" r="14" fill="#22c55e" />
    <circle cx="180" cy="96" r="10" fill="#14b8a6" />
    <path d="M110 78c12-18 44-26 66-10" fill="none" stroke="#0f766e" stroke-width="5" stroke-linecap="round" />
  </g>
  <g transform="translate(220 70)" opacity="0.8">
    <path d="M40 80c30-60 80-80 120-40" fill="none" stroke="url(#grain)" stroke-width="12" stroke-linecap="round" />
    <circle cx="60" cy="120" r="12" fill="#f97316" />
    <circle cx="120" cy="108" r="10" fill="#f59e0b" />
    <circle cx="180" cy="124" r="8" fill="#fbbf24" />
    <circle cx="220" cy="96" r="6" fill="#f97316" />
  </g>
</svg>
